<svg xmlns="http://www.w3.org/2000/svg" xmlns:xlink="http://www.w3.org/1999/xlink" width="1600" height="1786" viewBox="0 0 1600 1786"><rect width="1600" height="1786" fill="#f7f7f4"/><text x="60" y="78" font-family="system-ui,-apple-system,'Segoe UI',Helvetica,Arial,sans-serif" font-size="40" font-weight="700" fill="#161616">Flimmer — 5 Logo-Entwürfe</text><text x="60" y="116" font-family="system-ui,-apple-system,'Segoe UI',Helvetica,Arial,sans-serif" font-size="20" fill="#6b6b6b">Concepts for review — pick a direction (or tell me what you like in each).</text><rect x="60" y="150" width="474.667" height="774" rx="18" fill="#fff" stroke="#e4e4e0" stroke-width="1"/><g><svg xmlns="http://www.w3.org/2000/svg" role="img" aria-label="Flimmer Judder" viewBox="0 0 1000 1000" x="90" y="190" width="414.667" height="300" preserveAspectRatio="xMidYMid meet"><title>Flimmer Judder</title><rect width="1000" height="1000" fill="#11100e"/><path d="M220.0 190.0 L220.0 750.0 L700.0 470.0 Z" fill="#cfae5c"/><path d="M320.0 260.0 L320.0 820.0 L800.0 540.0 Z" fill="#ece7dd"/></svg>
</g><g><svg xmlns="http://www.w3.org/2000/svg" role="img" aria-label="Flimmer Judder" viewBox="0 0 2372 1000" x="90" y="514" width="414.667" height="120" preserveAspectRatio="xMidYMid meet"><title>Flimmer Judder</title><g transform="translate(0 190) scale(0.62)"><rect width="1000" height="1000" fill="#11100e"/><path d="M220.0 190.0 L220.0 750.0 L700.0 470.0 Z" fill="#cfae5c"/><path d="M320.0 260.0 L320.0 820.0 L800.0 540.0 Z" fill="#ece7dd"/></g><g transform="translate(740 650)" fill="#16140f"><path transform="translate(-19.62 0.00) scale(0.436047 -0.436047)" d="M45 0V688H386V556H198V393H352V260H198V0Z"/><path transform="translate(174.42 0.00) scale(0.436047 -0.436047)" d="M45 0V688H198V132H400V0Z"/><path transform="translate(375.44 0.00) scale(0.436047 -0.436047)" d="M45 0V688H198V0Z"/><path transform="translate(503.20 0.00) scale(0.436047 -0.436047)" d="M46 0V688H259L315 379Q318 363 322.0 338.5Q326 314 330.0 288.0Q334 262 337 241H346Q348 257 352.0 280.5Q356 304 360.0 330.0Q364 356 367 378L422 688H631V0H486V301Q486 336 487.0 368.0Q488 400 489.5 424.5Q491 449 491 462H484Q482 451 479.0 435.5Q476 420 473.5 404.0Q471 388 468 376L397 0H279L208 376Q207 386 204.0 401.0Q201 416 198.0 433.0Q195 450 193 462H185Q187 443 188.0 415.5Q189 388 189.5 358.0Q190 328 190 301V0Z"/><path transform="translate(820.20 0.00) scale(0.436047 -0.436047)" d="M46 0V688H259L315 379Q318 363 322.0 338.5Q326 314 330.0 288.0Q334 262 337 241H346Q348 257 352.0 280.5Q356 304 360.0 330.0Q364 356 367 378L422 688H631V0H486V301Q486 336 487.0 368.0Q488 400 489.5 424.5Q491 449 491 462H484Q482 451 479.0 435.5Q476 420 473.5 404.0Q471 388 468 376L397 0H279L208 376Q207 386 204.0 401.0Q201 416 198.0 433.0Q195 450 193 462H185Q187 443 188.0 415.5Q189 388 189.5 358.0Q190 328 190 301V0Z"/><path transform="translate(1137.21 0.00) scale(0.436047 -0.436047)" d="M45 0V688H425V556H198V415H390V283H198V132H429V0Z"/><path transform="translate(1356.10 0.00) scale(0.436047 -0.436047)" d="M45 0V688H276Q352 688 394.0 660.5Q436 633 453.0 586.5Q470 540 470 483Q470 423 455.5 374.0Q441 325 405 295L493 0H335L270 244H198V0ZM198 368H255Q291 368 304.0 396.5Q317 425 317 468Q317 497 311.5 517.5Q306 538 292.0 549.0Q278 560 252 560H198Z"/></g></svg>
</g><g><svg xmlns="http://www.w3.org/2000/svg" role="img" aria-label="Flimmer Judder" viewBox="0 0 1000 1000" x="90" y="660" width="64" height="64" preserveAspectRatio="xMidYMid meet"><title>Flimmer Judder</title><rect width="1000" height="1000" fill="#11100e"/><path d="M220.0 190.0 L220.0 750.0 L700.0 470.0 Z" fill="#cfae5c"/><path d="M320.0 260.0 L320.0 820.0 L800.0 540.0 Z" fill="#ece7dd"/></svg>
</g><text x="122" y="744" font-family="system-ui,-apple-system,'Segoe UI',Helvetica,Arial,sans-serif" font-size="12" fill="#8a8a8a" text-anchor="middle">64px</text><g><svg xmlns="http://www.w3.org/2000/svg" role="img" aria-label="Flimmer Judder" viewBox="0 0 1000 1000" x="180" y="692" width="32" height="32" preserveAspectRatio="xMidYMid meet"><title>Flimmer Judder</title><rect width="1000" height="1000" fill="#11100e"/><path d="M220.0 190.0 L220.0 750.0 L700.0 470.0 Z" fill="#cfae5c"/><path d="M320.0 260.0 L320.0 820.0 L800.0 540.0 Z" fill="#ece7dd"/></svg>
</g><text x="196" y="744" font-family="system-ui,-apple-system,'Segoe UI',Helvetica,Arial,sans-serif" font-size="12" fill="#8a8a8a" text-anchor="middle">32px</text><g><svg xmlns="http://www.w3.org/2000/svg" role="img" aria-label="Flimmer Judder" viewBox="0 0 1000 1000" x="238" y="708" width="16" height="16" preserveAspectRatio="xMidYMid meet"><title>Flimmer Judder</title><rect width="1000" height="1000" fill="#11100e"/><path d="M220.0 190.0 L220.0 750.0 L700.0 470.0 Z" fill="#cfae5c"/><path d="M320.0 260.0 L320.0 820.0 L800.0 540.0 Z" fill="#ece7dd"/></svg>
</g><text x="246" y="744" font-family="system-ui,-apple-system,'Segoe UI',Helvetica,Arial,sans-serif" font-size="12" fill="#8a8a8a" text-anchor="middle">16px</text><text x="90.0" y="780" font-family="system-ui,-apple-system,'Segoe UI',Helvetica,Arial,sans-serif" font-size="26" font-weight="700" fill="#161616">A · Judder</text><text x="90.0" y="814" font-family="system-ui,-apple-system,'Segoe UI',Helvetica,Arial,sans-serif" font-size="19" fill="#555">Play-Dreieck, dessen zweites Bild nicht</text><text x="90.0" y="840" font-family="system-ui,-apple-system,'Segoe UI',Helvetica,Arial,sans-serif" font-size="19" fill="#555">sitzt</text><rect x="562.667" y="150" width="474.667" height="774" rx="18" fill="#fff" stroke="#161616" stroke-width="2"/><g><svg xmlns="http://www.w3.org/2000/svg" role="img" aria-label="Flimmer Ampelband" viewBox="0 0 1000 1000" x="592.667" y="190" width="414.667" height="300" preserveAspectRatio="xMidYMid meet"><title>Flimmer Ampelband</title><rect width="1000" height="1000" fill="#11100e"/><path d="M300 100 H700 V900 H300 Z M322 218 h40 v70 h-40 Z M638 218 h40 v70 h-40 Z M322 465 h40 v70 h-40 Z M638 465 h40 v70 h-40 Z M322 712 h40 v70 h-40 Z M638 712 h40 v70 h-40 Z " fill="#ece7dd" fill-rule="evenodd"/><path d="M380 158 h240 v190 h-240 Z" fill="#8fae86"/><path d="M380 405 h240 v190 h-240 Z" fill="#cfae5c"/><path d="M380 652 h240 v190 h-240 Z" fill="#d4826f"/></svg>
</g><g><svg xmlns="http://www.w3.org/2000/svg" role="img" aria-label="Flimmer Ampelband" viewBox="0 0 2372 1000" x="592.667" y="514" width="414.667" height="120" preserveAspectRatio="xMidYMid meet"><title>Flimmer Ampelband</title><g transform="translate(0 190) scale(0.62)"><rect width="1000" height="1000" fill="#11100e"/><path d="M300 100 H700 V900 H300 Z M322 218 h40 v70 h-40 Z M638 218 h40 v70 h-40 Z M322 465 h40 v70 h-40 Z M638 465 h40 v70 h-40 Z M322 712 h40 v70 h-40 Z M638 712 h40 v70 h-40 Z " fill="#ece7dd" fill-rule="evenodd"/><path d="M380 158 h240 v190 h-240 Z" fill="#8fae86"/><path d="M380 405 h240 v190 h-240 Z" fill="#cfae5c"/><path d="M380 652 h240 v190 h-240 Z" fill="#d4826f"/></g><g transform="translate(740 650)" fill="#16140f"><path transform="translate(-19.62 0.00) scale(0.436047 -0.436047)" d="M45 0V688H386V556H198V393H352V260H198V0Z"/><path transform="translate(174.42 0.00) scale(0.436047 -0.436047)" d="M45 0V688H198V132H400V0Z"/><path transform="translate(375.44 0.00) scale(0.436047 -0.436047)" d="M45 0V688H198V0Z"/><path transform="translate(503.20 0.00) scale(0.436047 -0.436047)" d="M46 0V688H259L315 379Q318 363 322.0 338.5Q326 314 330.0 288.0Q334 262 337 241H346Q348 257 352.0 280.5Q356 304 360.0 330.0Q364 356 367 378L422 688H631V0H486V301Q486 336 487.0 368.0Q488 400 489.5 424.5Q491 449 491 462H484Q482 451 479.0 435.5Q476 420 473.5 404.0Q471 388 468 376L397 0H279L208 376Q207 386 204.0 401.0Q201 416 198.0 433.0Q195 450 193 462H185Q187 443 188.0 415.5Q189 388 189.5 358.0Q190 328 190 301V0Z"/><path transform="translate(820.20 0.00) scale(0.436047 -0.436047)" d="M46 0V688H259L315 379Q318 363 322.0 338.5Q326 314 330.0 288.0Q334 262 337 241H346Q348 257 352.0 280.5Q356 304 360.0 330.0Q364 356 367 378L422 688H631V0H486V301Q486 336 487.0 368.0Q488 400 489.5 424.5Q491 449 491 462H484Q482 451 479.0 435.5Q476 420 473.5 404.0Q471 388 468 376L397 0H279L208 376Q207 386 204.0 401.0Q201 416 198.0 433.0Q195 450 193 462H185Q187 443 188.0 415.5Q189 388 189.5 358.0Q190 328 190 301V0Z"/><path transform="translate(1137.21 0.00) scale(0.436047 -0.436047)" d="M45 0V688H425V556H198V415H390V283H198V132H429V0Z"/><path transform="translate(1356.10 0.00) scale(0.436047 -0.436047)" d="M45 0V688H276Q352 688 394.0 660.5Q436 633 453.0 586.5Q470 540 470 483Q470 423 455.5 374.0Q441 325 405 295L493 0H335L270 244H198V0ZM198 368H255Q291 368 304.0 396.5Q317 425 317 468Q317 497 311.5 517.5Q306 538 292.0 549.0Q278 560 252 560H198Z"/></g></svg>
</g><g><svg xmlns="http://www.w3.org/2000/svg" role="img" aria-label="Flimmer Ampelband" viewBox="0 0 1000 1000" x="592.667" y="660" width="64" height="64" preserveAspectRatio="xMidYMid meet"><title>Flimmer Ampelband</title><rect width="1000" height="1000" fill="#11100e"/><path d="M300 100 H700 V900 H300 Z M322 218 h40 v70 h-40 Z M638 218 h40 v70 h-40 Z M322 465 h40 v70 h-40 Z M638 465 h40 v70 h-40 Z M322 712 h40 v70 h-40 Z M638 712 h40 v70 h-40 Z " fill="#ece7dd" fill-rule="evenodd"/><path d="M380 158 h240 v190 h-240 Z" fill="#8fae86"/><path d="M380 405 h240 v190 h-240 Z" fill="#cfae5c"/><path d="M380 652 h240 v190 h-240 Z" fill="#d4826f"/></svg>
</g><text x="624.667" y="744" font-family="system-ui,-apple-system,'Segoe UI',Helvetica,Arial,sans-serif" font-size="12" fill="#8a8a8a" text-anchor="middle">64px</text><g><svg xmlns="http://www.w3.org/2000/svg" role="img" aria-label="Flimmer Ampelband" viewBox="0 0 1000 1000" x="682.667" y="692" width="32" height="32" preserveAspectRatio="xMidYMid meet"><title>Flimmer Ampelband</title><rect width="1000" height="1000" fill="#11100e"/><path d="M300 100 H700 V900 H300 Z M322 218 h40 v70 h-40 Z M638 218 h40 v70 h-40 Z M322 465 h40 v70 h-40 Z M638 465 h40 v70 h-40 Z M322 712 h40 v70 h-40 Z M638 712 h40 v70 h-40 Z " fill="#ece7dd" fill-rule="evenodd"/><path d="M380 158 h240 v190 h-240 Z" fill="#8fae86"/><path d="M380 405 h240 v190 h-240 Z" fill="#cfae5c"/><path d="M380 652 h240 v190 h-240 Z" fill="#d4826f"/></svg>
</g><text x="698.667" y="744" font-family="system-ui,-apple-system,'Segoe UI',Helvetica,Arial,sans-serif" font-size="12" fill="#8a8a8a" text-anchor="middle">32px</text><g><svg xmlns="http://www.w3.org/2000/svg" role="img" aria-label="Flimmer Ampelband" viewBox="0 0 1000 1000" x="740.667" y="708" width="16" height="16" preserveAspectRatio="xMidYMid meet"><title>Flimmer Ampelband</title><rect width="1000" height="1000" fill="#11100e"/><path d="M300 100 H700 V900 H300 Z M322 218 h40 v70 h-40 Z M638 218 h40 v70 h-40 Z M322 465 h40 v70 h-40 Z M638 465 h40 v70 h-40 Z M322 712 h40 v70 h-40 Z M638 712 h40 v70 h-40 Z " fill="#ece7dd" fill-rule="evenodd"/><path d="M380 158 h240 v190 h-240 Z" fill="#8fae86"/><path d="M380 405 h240 v190 h-240 Z" fill="#cfae5c"/><path d="M380 652 h240 v190 h-240 Z" fill="#d4826f"/></svg>
</g><text x="748.667" y="744" font-family="system-ui,-apple-system,'Segoe UI',Helvetica,Arial,sans-serif" font-size="12" fill="#8a8a8a" text-anchor="middle">16px</text><text x="592.6666666666667" y="780" font-family="system-ui,-apple-system,'Segoe UI',Helvetica,Arial,sans-serif" font-size="26" font-weight="700" fill="#161616">B · Ampelband</text><text x="592.6666666666667" y="808" font-family="system-ui,-apple-system,'Segoe UI',Helvetica,Arial,sans-serif" font-size="15" font-weight="700" fill="#161616" letter-spacing="1.5">RECOMMENDED</text><text x="592.6666666666667" y="842" font-family="system-ui,-apple-system,'Segoe UI',Helvetica,Arial,sans-serif" font-size="19" fill="#555">Filmstreifen, drei Bilder =</text><text x="592.6666666666667" y="868" font-family="system-ui,-apple-system,'Segoe UI',Helvetica,Arial,sans-serif" font-size="19" fill="#555">Wiedergabe-Ampel</text><rect x="1065.33" y="150" width="474.667" height="774" rx="18" fill="#fff" stroke="#e4e4e0" stroke-width="1"/><g><svg xmlns="http://www.w3.org/2000/svg" role="img" aria-label="Flimmer Lichtkegel" viewBox="0 0 1000 1000" x="1095.33" y="190" width="414.667" height="300" preserveAspectRatio="xMidYMid meet"><title>Flimmer Lichtkegel</title><rect width="1000" height="1000" fill="#a13f2c"/><circle cx="230" cy="500" r="70" fill="#ece7dd"/><path d="M339.1 450.1 L347.8 477.4 L820.0 386.8 L820.0 230.0 Z" fill="#ece7dd"/><path d="M349.1 485.7 L349.1 514.3 L820.0 571.0 L820.0 429.0 Z" fill="#cfae5c"/><path d="M347.8 522.6 L339.1 549.9 L820.0 770.0 L820.0 613.2 Z" fill="#ece7dd"/></svg>
</g><g><svg xmlns="http://www.w3.org/2000/svg" role="img" aria-label="Flimmer Lichtkegel" viewBox="0 0 2372 1000" x="1095.33" y="514" width="414.667" height="120" preserveAspectRatio="xMidYMid meet"><title>Flimmer Lichtkegel</title><g transform="translate(0 190) scale(0.62)"><rect width="1000" height="1000" fill="#a13f2c"/><circle cx="230" cy="500" r="70" fill="#ece7dd"/><path d="M339.1 450.1 L347.8 477.4 L820.0 386.8 L820.0 230.0 Z" fill="#ece7dd"/><path d="M349.1 485.7 L349.1 514.3 L820.0 571.0 L820.0 429.0 Z" fill="#cfae5c"/><path d="M347.8 522.6 L339.1 549.9 L820.0 770.0 L820.0 613.2 Z" fill="#ece7dd"/></g><g transform="translate(740 650)" fill="#16140f"><path transform="translate(-19.62 0.00) scale(0.436047 -0.436047)" d="M45 0V688H386V556H198V393H352V260H198V0Z"/><path transform="translate(174.42 0.00) scale(0.436047 -0.436047)" d="M45 0V688H198V132H400V0Z"/><path transform="translate(375.44 0.00) scale(0.436047 -0.436047)" d="M45 0V688H198V0Z"/><path transform="translate(503.20 0.00) scale(0.436047 -0.436047)" d="M46 0V688H259L315 379Q318 363 322.0 338.5Q326 314 330.0 288.0Q334 262 337 241H346Q348 257 352.0 280.5Q356 304 360.0 330.0Q364 356 367 378L422 688H631V0H486V301Q486 336 487.0 368.0Q488 400 489.5 424.5Q491 449 491 462H484Q482 451 479.0 435.5Q476 420 473.5 404.0Q471 388 468 376L397 0H279L208 376Q207 386 204.0 401.0Q201 416 198.0 433.0Q195 450 193 462H185Q187 443 188.0 415.5Q189 388 189.5 358.0Q190 328 190 301V0Z"/><path transform="translate(820.20 0.00) scale(0.436047 -0.436047)" d="M46 0V688H259L315 379Q318 363 322.0 338.5Q326 314 330.0 288.0Q334 262 337 241H346Q348 257 352.0 280.5Q356 304 360.0 330.0Q364 356 367 378L422 688H631V0H486V301Q486 336 487.0 368.0Q488 400 489.5 424.5Q491 449 491 462H484Q482 451 479.0 435.5Q476 420 473.5 404.0Q471 388 468 376L397 0H279L208 376Q207 386 204.0 401.0Q201 416 198.0 433.0Q195 450 193 462H185Q187 443 188.0 415.5Q189 388 189.5 358.0Q190 328 190 301V0Z"/><path transform="translate(1137.21 0.00) scale(0.436047 -0.436047)" d="M45 0V688H425V556H198V415H390V283H198V132H429V0Z"/><path transform="translate(1356.10 0.00) scale(0.436047 -0.436047)" d="M45 0V688H276Q352 688 394.0 660.5Q436 633 453.0 586.5Q470 540 470 483Q470 423 455.5 374.0Q441 325 405 295L493 0H335L270 244H198V0ZM198 368H255Q291 368 304.0 396.5Q317 425 317 468Q317 497 311.5 517.5Q306 538 292.0 549.0Q278 560 252 560H198Z"/></g></svg>
</g><g><svg xmlns="http://www.w3.org/2000/svg" role="img" aria-label="Flimmer Lichtkegel" viewBox="0 0 1000 1000" x="1095.33" y="660" width="64" height="64" preserveAspectRatio="xMidYMid meet"><title>Flimmer Lichtkegel</title><rect width="1000" height="1000" fill="#a13f2c"/><circle cx="230" cy="500" r="70" fill="#ece7dd"/><path d="M339.1 450.1 L347.8 477.4 L820.0 386.8 L820.0 230.0 Z" fill="#ece7dd"/><path d="M349.1 485.7 L349.1 514.3 L820.0 571.0 L820.0 429.0 Z" fill="#cfae5c"/><path d="M347.8 522.6 L339.1 549.9 L820.0 770.0 L820.0 613.2 Z" fill="#ece7dd"/></svg>
</g><text x="1127.33" y="744" font-family="system-ui,-apple-system,'Segoe UI',Helvetica,Arial,sans-serif" font-size="12" fill="#8a8a8a" text-anchor="middle">64px</text><g><svg xmlns="http://www.w3.org/2000/svg" role="img" aria-label="Flimmer Lichtkegel" viewBox="0 0 1000 1000" x="1185.33" y="692" width="32" height="32" preserveAspectRatio="xMidYMid meet"><title>Flimmer Lichtkegel</title><rect width="1000" height="1000" fill="#a13f2c"/><circle cx="230" cy="500" r="70" fill="#ece7dd"/><path d="M339.1 450.1 L347.8 477.4 L820.0 386.8 L820.0 230.0 Z" fill="#ece7dd"/><path d="M349.1 485.7 L349.1 514.3 L820.0 571.0 L820.0 429.0 Z" fill="#cfae5c"/><path d="M347.8 522.6 L339.1 549.9 L820.0 770.0 L820.0 613.2 Z" fill="#ece7dd"/></svg>
</g><text x="1201.33" y="744" font-family="system-ui,-apple-system,'Segoe UI',Helvetica,Arial,sans-serif" font-size="12" fill="#8a8a8a" text-anchor="middle">32px</text><g><svg xmlns="http://www.w3.org/2000/svg" role="img" aria-label="Flimmer Lichtkegel" viewBox="0 0 1000 1000" x="1243.33" y="708" width="16" height="16" preserveAspectRatio="xMidYMid meet"><title>Flimmer Lichtkegel</title><rect width="1000" height="1000" fill="#a13f2c"/><circle cx="230" cy="500" r="70" fill="#ece7dd"/><path d="M339.1 450.1 L347.8 477.4 L820.0 386.8 L820.0 230.0 Z" fill="#ece7dd"/><path d="M349.1 485.7 L349.1 514.3 L820.0 571.0 L820.0 429.0 Z" fill="#cfae5c"/><path d="M347.8 522.6 L339.1 549.9 L820.0 770.0 L820.0 613.2 Z" fill="#ece7dd"/></svg>
</g><text x="1251.33" y="744" font-family="system-ui,-apple-system,'Segoe UI',Helvetica,Arial,sans-serif" font-size="12" fill="#8a8a8a" text-anchor="middle">16px</text><text x="1095.3333333333335" y="780" font-family="system-ui,-apple-system,'Segoe UI',Helvetica,Arial,sans-serif" font-size="26" font-weight="700" fill="#161616">C · Lichtkegel</text><text x="1095.3333333333335" y="814" font-family="system-ui,-apple-system,'Segoe UI',Helvetica,Arial,sans-serif" font-size="19" fill="#555">Projektor mit drei Strahlen, einer flackert</text><rect x="60" y="952" width="474.667" height="774" rx="18" fill="#fff" stroke="#e4e4e0" stroke-width="1"/><g><svg xmlns="http://www.w3.org/2000/svg" role="img" aria-label="Flimmer Zu zweit" viewBox="0 0 1000 1000" x="90" y="992" width="414.667" height="300" preserveAspectRatio="xMidYMid meet"><title>Flimmer Zu zweit</title><rect width="1000" height="1000" fill="#11100e"/><path d="M140 150 h720 v420 h-720 Z M450 265 V455 L615 360 Z" fill="#ece7dd" fill-rule="evenodd"/><circle cx="335" cy="730" r="100" fill="#d4826f"/><path d="M185 950 A150 100 0 0 1 485 950 Z" fill="#d4826f"/><circle cx="665" cy="730" r="100" fill="#cfae5c"/><path d="M515 950 A150 100 0 0 1 815 950 Z" fill="#cfae5c"/></svg>
</g><g><svg xmlns="http://www.w3.org/2000/svg" role="img" aria-label="Flimmer Zu zweit" viewBox="0 0 2372 1000" x="90" y="1316" width="414.667" height="120" preserveAspectRatio="xMidYMid meet"><title>Flimmer Zu zweit</title><g transform="translate(0 190) scale(0.62)"><rect width="1000" height="1000" fill="#11100e"/><path d="M140 150 h720 v420 h-720 Z M450 265 V455 L615 360 Z" fill="#ece7dd" fill-rule="evenodd"/><circle cx="335" cy="730" r="100" fill="#d4826f"/><path d="M185 950 A150 100 0 0 1 485 950 Z" fill="#d4826f"/><circle cx="665" cy="730" r="100" fill="#cfae5c"/><path d="M515 950 A150 100 0 0 1 815 950 Z" fill="#cfae5c"/></g><g transform="translate(740 650)" fill="#16140f"><path transform="translate(-19.62 0.00) scale(0.436047 -0.436047)" d="M45 0V688H386V556H198V393H352V260H198V0Z"/><path transform="translate(174.42 0.00) scale(0.436047 -0.436047)" d="M45 0V688H198V132H400V0Z"/><path transform="translate(375.44 0.00) scale(0.436047 -0.436047)" d="M45 0V688H198V0Z"/><path transform="translate(503.20 0.00) scale(0.436047 -0.436047)" d="M46 0V688H259L315 379Q318 363 322.0 338.5Q326 314 330.0 288.0Q334 262 337 241H346Q348 257 352.0 280.5Q356 304 360.0 330.0Q364 356 367 378L422 688H631V0H486V301Q486 336 487.0 368.0Q488 400 489.5 424.5Q491 449 491 462H484Q482 451 479.0 435.5Q476 420 473.5 404.0Q471 388 468 376L397 0H279L208 376Q207 386 204.0 401.0Q201 416 198.0 433.0Q195 450 193 462H185Q187 443 188.0 415.5Q189 388 189.5 358.0Q190 328 190 301V0Z"/><path transform="translate(820.20 0.00) scale(0.436047 -0.436047)" d="M46 0V688H259L315 379Q318 363 322.0 338.5Q326 314 330.0 288.0Q334 262 337 241H346Q348 257 352.0 280.5Q356 304 360.0 330.0Q364 356 367 378L422 688H631V0H486V301Q486 336 487.0 368.0Q488 400 489.5 424.5Q491 449 491 462H484Q482 451 479.0 435.5Q476 420 473.5 404.0Q471 388 468 376L397 0H279L208 376Q207 386 204.0 401.0Q201 416 198.0 433.0Q195 450 193 462H185Q187 443 188.0 415.5Q189 388 189.5 358.0Q190 328 190 301V0Z"/><path transform="translate(1137.21 0.00) scale(0.436047 -0.436047)" d="M45 0V688H425V556H198V415H390V283H198V132H429V0Z"/><path transform="translate(1356.10 0.00) scale(0.436047 -0.436047)" d="M45 0V688H276Q352 688 394.0 660.5Q436 633 453.0 586.5Q470 540 470 483Q470 423 455.5 374.0Q441 325 405 295L493 0H335L270 244H198V0ZM198 368H255Q291 368 304.0 396.5Q317 425 317 468Q317 497 311.5 517.5Q306 538 292.0 549.0Q278 560 252 560H198Z"/></g></svg>
</g><g><svg xmlns="http://www.w3.org/2000/svg" role="img" aria-label="Flimmer Zu zweit" viewBox="0 0 1000 1000" x="90" y="1462" width="64" height="64" preserveAspectRatio="xMidYMid meet"><title>Flimmer Zu zweit</title><rect width="1000" height="1000" fill="#11100e"/><path d="M140 150 h720 v420 h-720 Z M450 265 V455 L615 360 Z" fill="#ece7dd" fill-rule="evenodd"/><circle cx="335" cy="730" r="100" fill="#d4826f"/><path d="M185 950 A150 100 0 0 1 485 950 Z" fill="#d4826f"/><circle cx="665" cy="730" r="100" fill="#cfae5c"/><path d="M515 950 A150 100 0 0 1 815 950 Z" fill="#cfae5c"/></svg>
</g><text x="122" y="1546" font-family="system-ui,-apple-system,'Segoe UI',Helvetica,Arial,sans-serif" font-size="12" fill="#8a8a8a" text-anchor="middle">64px</text><g><svg xmlns="http://www.w3.org/2000/svg" role="img" aria-label="Flimmer Zu zweit" viewBox="0 0 1000 1000" x="180" y="1494" width="32" height="32" preserveAspectRatio="xMidYMid meet"><title>Flimmer Zu zweit</title><rect width="1000" height="1000" fill="#11100e"/><path d="M140 150 h720 v420 h-720 Z M450 265 V455 L615 360 Z" fill="#ece7dd" fill-rule="evenodd"/><circle cx="335" cy="730" r="100" fill="#d4826f"/><path d="M185 950 A150 100 0 0 1 485 950 Z" fill="#d4826f"/><circle cx="665" cy="730" r="100" fill="#cfae5c"/><path d="M515 950 A150 100 0 0 1 815 950 Z" fill="#cfae5c"/></svg>
</g><text x="196" y="1546" font-family="system-ui,-apple-system,'Segoe UI',Helvetica,Arial,sans-serif" font-size="12" fill="#8a8a8a" text-anchor="middle">32px</text><g><svg xmlns="http://www.w3.org/2000/svg" role="img" aria-label="Flimmer Zu zweit" viewBox="0 0 1000 1000" x="238" y="1510" width="16" height="16" preserveAspectRatio="xMidYMid meet"><title>Flimmer Zu zweit</title><rect width="1000" height="1000" fill="#11100e"/><path d="M140 150 h720 v420 h-720 Z M450 265 V455 L615 360 Z" fill="#ece7dd" fill-rule="evenodd"/><circle cx="335" cy="730" r="100" fill="#d4826f"/><path d="M185 950 A150 100 0 0 1 485 950 Z" fill="#d4826f"/><circle cx="665" cy="730" r="100" fill="#cfae5c"/><path d="M515 950 A150 100 0 0 1 815 950 Z" fill="#cfae5c"/></svg>
</g><text x="246" y="1546" font-family="system-ui,-apple-system,'Segoe UI',Helvetica,Arial,sans-serif" font-size="12" fill="#8a8a8a" text-anchor="middle">16px</text><text x="90.0" y="1582" font-family="system-ui,-apple-system,'Segoe UI',Helvetica,Arial,sans-serif" font-size="26" font-weight="700" fill="#161616">D · Zu zweit</text><text x="90.0" y="1616" font-family="system-ui,-apple-system,'Segoe UI',Helvetica,Arial,sans-serif" font-size="19" fill="#555">Zwei Köpfe vor der Leinwand: gemeinsam</text><text x="90.0" y="1642" font-family="system-ui,-apple-system,'Segoe UI',Helvetica,Arial,sans-serif" font-size="19" fill="#555">schauen</text><rect x="562.667" y="952" width="474.667" height="774" rx="18" fill="#fff" stroke="#e4e4e0" stroke-width="1"/><g><svg xmlns="http://www.w3.org/2000/svg" role="img" aria-label="Flimmer Pixel-F" viewBox="0 0 1000 1000" x="592.667" y="992" width="414.667" height="300" preserveAspectRatio="xMidYMid meet"><title>Flimmer Pixel-F</title><rect width="1000" height="1000" fill="#3d6b38"/><path d="M160 160 h200 v200 h-200 Z" fill="#ece7dd"/><path d="M400 160 h200 v200 h-200 Z" fill="#ece7dd"/><path d="M160 400 h200 v200 h-200 Z" fill="#ece7dd"/><path d="M400 400 h200 v200 h-200 Z" fill="#ece7dd"/><path d="M160 640 h200 v200 h-200 Z" fill="#ece7dd"/><path d="M640 230 h200 v200 h-200 Z" fill="#cfae5c"/></svg>
</g><g><svg xmlns="http://www.w3.org/2000/svg" role="img" aria-label="Flimmer Pixel-F" viewBox="0 0 2372 1000" x="592.667" y="1316" width="414.667" height="120" preserveAspectRatio="xMidYMid meet"><title>Flimmer Pixel-F</title><g transform="translate(0 190) scale(0.62)"><rect width="1000" height="1000" fill="#3d6b38"/><path d="M160 160 h200 v200 h-200 Z" fill="#ece7dd"/><path d="M400 160 h200 v200 h-200 Z" fill="#ece7dd"/><path d="M160 400 h200 v200 h-200 Z" fill="#ece7dd"/><path d="M400 400 h200 v200 h-200 Z" fill="#ece7dd"/><path d="M160 640 h200 v200 h-200 Z" fill="#ece7dd"/><path d="M640 230 h200 v200 h-200 Z" fill="#cfae5c"/></g><g transform="translate(740 650)" fill="#16140f"><path transform="translate(-19.62 0.00) scale(0.436047 -0.436047)" d="M45 0V688H386V556H198V393H352V260H198V0Z"/><path transform="translate(174.42 0.00) scale(0.436047 -0.436047)" d="M45 0V688H198V132H400V0Z"/><path transform="translate(375.44 0.00) scale(0.436047 -0.436047)" d="M45 0V688H198V0Z"/><path transform="translate(503.20 0.00) scale(0.436047 -0.436047)" d="M46 0V688H259L315 379Q318 363 322.0 338.5Q326 314 330.0 288.0Q334 262 337 241H346Q348 257 352.0 280.5Q356 304 360.0 330.0Q364 356 367 378L422 688H631V0H486V301Q486 336 487.0 368.0Q488 400 489.5 424.5Q491 449 491 462H484Q482 451 479.0 435.5Q476 420 473.5 404.0Q471 388 468 376L397 0H279L208 376Q207 386 204.0 401.0Q201 416 198.0 433.0Q195 450 193 462H185Q187 443 188.0 415.5Q189 388 189.5 358.0Q190 328 190 301V0Z"/><path transform="translate(820.20 0.00) scale(0.436047 -0.436047)" d="M46 0V688H259L315 379Q318 363 322.0 338.5Q326 314 330.0 288.0Q334 262 337 241H346Q348 257 352.0 280.5Q356 304 360.0 330.0Q364 356 367 378L422 688H631V0H486V301Q486 336 487.0 368.0Q488 400 489.5 424.5Q491 449 491 462H484Q482 451 479.0 435.5Q476 420 473.5 404.0Q471 388 468 376L397 0H279L208 376Q207 386 204.0 401.0Q201 416 198.0 433.0Q195 450 193 462H185Q187 443 188.0 415.5Q189 388 189.5 358.0Q190 328 190 301V0Z"/><path transform="translate(1137.21 0.00) scale(0.436047 -0.436047)" d="M45 0V688H425V556H198V415H390V283H198V132H429V0Z"/><path transform="translate(1356.10 0.00) scale(0.436047 -0.436047)" d="M45 0V688H276Q352 688 394.0 660.5Q436 633 453.0 586.5Q470 540 470 483Q470 423 455.5 374.0Q441 325 405 295L493 0H335L270 244H198V0ZM198 368H255Q291 368 304.0 396.5Q317 425 317 468Q317 497 311.5 517.5Q306 538 292.0 549.0Q278 560 252 560H198Z"/></g></svg>
</g><g><svg xmlns="http://www.w3.org/2000/svg" role="img" aria-label="Flimmer Pixel-F" viewBox="0 0 1000 1000" x="592.667" y="1462" width="64" height="64" preserveAspectRatio="xMidYMid meet"><title>Flimmer Pixel-F</title><rect width="1000" height="1000" fill="#3d6b38"/><path d="M160 160 h200 v200 h-200 Z" fill="#ece7dd"/><path d="M400 160 h200 v200 h-200 Z" fill="#ece7dd"/><path d="M160 400 h200 v200 h-200 Z" fill="#ece7dd"/><path d="M400 400 h200 v200 h-200 Z" fill="#ece7dd"/><path d="M160 640 h200 v200 h-200 Z" fill="#ece7dd"/><path d="M640 230 h200 v200 h-200 Z" fill="#cfae5c"/></svg>
</g><text x="624.667" y="1546" font-family="system-ui,-apple-system,'Segoe UI',Helvetica,Arial,sans-serif" font-size="12" fill="#8a8a8a" text-anchor="middle">64px</text><g><svg xmlns="http://www.w3.org/2000/svg" role="img" aria-label="Flimmer Pixel-F" viewBox="0 0 1000 1000" x="682.667" y="1494" width="32" height="32" preserveAspectRatio="xMidYMid meet"><title>Flimmer Pixel-F</title><rect width="1000" height="1000" fill="#3d6b38"/><path d="M160 160 h200 v200 h-200 Z" fill="#ece7dd"/><path d="M400 160 h200 v200 h-200 Z" fill="#ece7dd"/><path d="M160 400 h200 v200 h-200 Z" fill="#ece7dd"/><path d="M400 400 h200 v200 h-200 Z" fill="#ece7dd"/><path d="M160 640 h200 v200 h-200 Z" fill="#ece7dd"/><path d="M640 230 h200 v200 h-200 Z" fill="#cfae5c"/></svg>
</g><text x="698.667" y="1546" font-family="system-ui,-apple-system,'Segoe UI',Helvetica,Arial,sans-serif" font-size="12" fill="#8a8a8a" text-anchor="middle">32px</text><g><svg xmlns="http://www.w3.org/2000/svg" role="img" aria-label="Flimmer Pixel-F" viewBox="0 0 1000 1000" x="740.667" y="1510" width="16" height="16" preserveAspectRatio="xMidYMid meet"><title>Flimmer Pixel-F</title><rect width="1000" height="1000" fill="#3d6b38"/><path d="M160 160 h200 v200 h-200 Z" fill="#ece7dd"/><path d="M400 160 h200 v200 h-200 Z" fill="#ece7dd"/><path d="M160 400 h200 v200 h-200 Z" fill="#ece7dd"/><path d="M400 400 h200 v200 h-200 Z" fill="#ece7dd"/><path d="M160 640 h200 v200 h-200 Z" fill="#ece7dd"/><path d="M640 230 h200 v200 h-200 Z" fill="#cfae5c"/></svg>
</g><text x="748.667" y="1546" font-family="system-ui,-apple-system,'Segoe UI',Helvetica,Arial,sans-serif" font-size="12" fill="#8a8a8a" text-anchor="middle">16px</text><text x="592.6666666666667" y="1582" font-family="system-ui,-apple-system,'Segoe UI',Helvetica,Arial,sans-serif" font-size="26" font-weight="700" fill="#161616">E · Pixel-F</text><text x="592.6666666666667" y="1616" font-family="system-ui,-apple-system,'Segoe UI',Helvetica,Arial,sans-serif" font-size="19" fill="#555">F aus neun Bildpunkten, einer flackert</text></svg>
