<svg xmlns="http://www.w3.org/2000/svg" xmlns:xlink="http://www.w3.org/1999/xlink" width="1600" height="984" viewBox="0 0 1600 984"><rect width="1600" height="984" fill="#f7f7f4"/><text x="60" y="78" font-family="system-ui,-apple-system,'Segoe UI',Helvetica,Arial,sans-serif" font-size="40" font-weight="700" fill="#161616">Flimmer — Terminal-Stil</text><text x="60" y="116" font-family="system-ui,-apple-system,'Segoe UI',Helvetica,Arial,sans-serif" font-size="20" fill="#6b6b6b">Concepts for review — pick a direction (or tell me what you like in each).</text><rect x="60" y="150" width="474.667" height="774" rx="18" fill="#fff" stroke="#161616" stroke-width="2"/><g><svg xmlns="http://www.w3.org/2000/svg" role="img" aria-label="Flimmer Block-F" viewBox="0 0 1000 1000" x="90" y="190" width="414.667" height="300" preserveAspectRatio="xMidYMid meet"><title>Flimmer Block-F</title><rect width="1000" height="1000" fill="#11100e"/><path d="M180 180 h640 v640 h-640 Z M340 260 L660 260 L660 340 L420 340 L420 420 L580 420 L580 500 L420 500 L420 740 L340 740 Z" fill="#ece7dd" fill-rule="evenodd"/><path d="M340 500 L420 500 L420 740 L340 740 Z" fill="#78716a"/></svg>
</g><g><svg xmlns="http://www.w3.org/2000/svg" role="img" aria-label="Flimmer Block-F" viewBox="0 0 2200 640" x="90" y="514" width="414.667" height="120" preserveAspectRatio="xMidYMid meet"><title>Flimmer Block-F</title><rect width="2200" height="640" fill="#11100e"/><g transform="translate(120 120) scale(0.625) translate(-180 -180)"><path d="M180 180 h640 v640 h-640 Z M340 260 L660 260 L660 340 L420 340 L420 420 L580 420 L580 500 L420 500 L420 740 L340 740 Z" fill="#ece7dd" fill-rule="evenodd"/><path d="M340 500 L420 500 L420 740 L340 740 Z" fill="#78716a"/></g><path d="M639.5 179.5 h121 v41 h-121 ZM639.5 219.5 h41 v41 h-41 ZM639.5 259.5 h121 v41 h-121 ZM639.5 299.5 h41 v41 h-41 ZM639.5 339.5 h41 v41 h-41 ZM639.5 379.5 h41 v41 h-41 ZM639.5 419.5 h41 v41 h-41 Z" fill="#78716a"/><path d="M839.5 179.5 h81 v41 h-81 ZM879.5 219.5 h41 v41 h-41 ZM879.5 259.5 h41 v41 h-41 ZM879.5 299.5 h41 v41 h-41 ZM879.5 339.5 h41 v41 h-41 ZM879.5 379.5 h41 v41 h-41 ZM879.5 419.5 h81 v41 h-81 Z" fill="#78716a"/><path d="M1039.5 179.5 h41 v41 h-41 ZM999.5 259.5 h81 v41 h-81 ZM1039.5 299.5 h41 v41 h-41 ZM1039.5 339.5 h41 v41 h-41 ZM1039.5 379.5 h41 v41 h-41 ZM1039.5 419.5 h81 v41 h-81 Z" fill="#78716a"/><path d="M1159.5 259.5 h201 v41 h-201 ZM1159.5 299.5 h41 v41 h-41 ZM1239.5 299.5 h41 v41 h-41 ZM1319.5 299.5 h41 v41 h-41 ZM1159.5 339.5 h41 v41 h-41 ZM1239.5 339.5 h41 v41 h-41 ZM1319.5 339.5 h41 v41 h-41 ZM1159.5 379.5 h41 v41 h-41 ZM1239.5 379.5 h41 v41 h-41 ZM1319.5 379.5 h41 v41 h-41 ZM1159.5 419.5 h41 v41 h-41 ZM1239.5 419.5 h41 v41 h-41 ZM1319.5 419.5 h41 v41 h-41 Z" fill="#78716a"/><path d="M1399.5 259.5 h201 v41 h-201 ZM1399.5 299.5 h41 v41 h-41 ZM1479.5 299.5 h41 v41 h-41 ZM1559.5 299.5 h41 v41 h-41 ZM1399.5 339.5 h41 v41 h-41 ZM1479.5 339.5 h41 v41 h-41 ZM1559.5 339.5 h41 v41 h-41 ZM1399.5 379.5 h41 v41 h-41 ZM1479.5 379.5 h41 v41 h-41 ZM1559.5 379.5 h41 v41 h-41 ZM1399.5 419.5 h41 v41 h-41 ZM1479.5 419.5 h41 v41 h-41 ZM1559.5 419.5 h41 v41 h-41 Z" fill="#ece7dd"/><path d="M1639.5 259.5 h161 v41 h-161 ZM1639.5 299.5 h41 v41 h-41 ZM1759.5 299.5 h41 v41 h-41 ZM1639.5 339.5 h161 v41 h-161 ZM1639.5 379.5 h41 v41 h-41 ZM1639.5 419.5 h161 v41 h-161 Z" fill="#ece7dd"/><path d="M1879.5 259.5 h41 v41 h-41 ZM1959.5 259.5 h81 v41 h-81 ZM1879.5 299.5 h81 v41 h-81 ZM1879.5 339.5 h41 v41 h-41 ZM1879.5 379.5 h41 v41 h-41 ZM1879.5 419.5 h41 v41 h-41 Z" fill="#ece7dd"/></svg>
</g><g><svg xmlns="http://www.w3.org/2000/svg" role="img" aria-label="Flimmer Block-F" viewBox="0 0 1000 1000" x="90" y="660" width="64" height="64" preserveAspectRatio="xMidYMid meet"><title>Flimmer Block-F</title><rect width="1000" height="1000" fill="#11100e"/><path d="M180 180 h640 v640 h-640 Z M340 260 L660 260 L660 340 L420 340 L420 420 L580 420 L580 500 L420 500 L420 740 L340 740 Z" fill="#ece7dd" fill-rule="evenodd"/><path d="M340 500 L420 500 L420 740 L340 740 Z" fill="#78716a"/></svg>
</g><text x="122" y="744" font-family="system-ui,-apple-system,'Segoe UI',Helvetica,Arial,sans-serif" font-size="12" fill="#8a8a8a" text-anchor="middle">64px</text><g><svg xmlns="http://www.w3.org/2000/svg" role="img" aria-label="Flimmer Block-F" viewBox="0 0 1000 1000" x="180" y="692" width="32" height="32" preserveAspectRatio="xMidYMid meet"><title>Flimmer Block-F</title><rect width="1000" height="1000" fill="#11100e"/><path d="M180 180 h640 v640 h-640 Z M340 260 L660 260 L660 340 L420 340 L420 420 L580 420 L580 500 L420 500 L420 740 L340 740 Z" fill="#ece7dd" fill-rule="evenodd"/><path d="M340 500 L420 500 L420 740 L340 740 Z" fill="#78716a"/></svg>
</g><text x="196" y="744" font-family="system-ui,-apple-system,'Segoe UI',Helvetica,Arial,sans-serif" font-size="12" fill="#8a8a8a" text-anchor="middle">32px</text><g><svg xmlns="http://www.w3.org/2000/svg" role="img" aria-label="Flimmer Block-F" viewBox="0 0 1000 1000" x="238" y="708" width="16" height="16" preserveAspectRatio="xMidYMid meet"><title>Flimmer Block-F</title><rect width="1000" height="1000" fill="#11100e"/><path d="M180 180 h640 v640 h-640 Z M340 260 L660 260 L660 340 L420 340 L420 420 L580 420 L580 500 L420 500 L420 740 L340 740 Z" fill="#ece7dd" fill-rule="evenodd"/><path d="M340 500 L420 500 L420 740 L340 740 Z" fill="#78716a"/></svg>
</g><text x="246" y="744" font-family="system-ui,-apple-system,'Segoe UI',Helvetica,Arial,sans-serif" font-size="12" fill="#8a8a8a" text-anchor="middle">16px</text><text x="90.0" y="780" font-family="system-ui,-apple-system,'Segoe UI',Helvetica,Arial,sans-serif" font-size="26" font-weight="700" fill="#161616">A · Block-F</text><text x="90.0" y="808" font-family="system-ui,-apple-system,'Segoe UI',Helvetica,Arial,sans-serif" font-size="15" font-weight="700" fill="#161616" letter-spacing="1.5">RECOMMENDED</text><text x="90.0" y="842" font-family="system-ui,-apple-system,'Segoe UI',Helvetica,Arial,sans-serif" font-size="19" fill="#555">Heller Block, F ausgestanzt, untere Hälfte</text><text x="90.0" y="868" font-family="system-ui,-apple-system,'Segoe UI',Helvetica,Arial,sans-serif" font-size="19" fill="#555">im Schatten</text><rect x="562.667" y="150" width="474.667" height="774" rx="18" fill="#fff" stroke="#e4e4e0" stroke-width="1"/><g><svg xmlns="http://www.w3.org/2000/svg" role="img" aria-label="Flimmer Cursor" viewBox="0 0 1000 1000" x="592.667" y="190" width="414.667" height="300" preserveAspectRatio="xMidYMid meet"><title>Flimmer Cursor</title><rect width="1000" height="1000" fill="#11100e"/><path d="M149.5 149.5 h301 v101 h-301 ZM149.5 249.5 h101 v101 h-101 ZM149.5 349.5 h301 v101 h-301 ZM149.5 449.5 h101 v101 h-101 ZM149.5 549.5 h101 v101 h-101 ZM149.5 649.5 h101 v101 h-101 ZM149.5 749.5 h101 v101 h-101 Z" fill="#ece7dd"/><path d="M649 349 h202 v502 h-202 Z" fill="#cfae5c"/></svg>
</g><g><svg xmlns="http://www.w3.org/2000/svg" role="img" aria-label="Flimmer Cursor" viewBox="0 0 1800 640" x="592.667" y="514" width="414.667" height="120" preserveAspectRatio="xMidYMid meet"><title>Flimmer Cursor</title><rect width="1800" height="640" fill="#11100e"/><path d="M119.5 179.5 h121 v41 h-121 ZM119.5 219.5 h41 v41 h-41 ZM119.5 259.5 h121 v41 h-121 ZM119.5 299.5 h41 v41 h-41 ZM119.5 339.5 h41 v41 h-41 ZM119.5 379.5 h41 v41 h-41 ZM119.5 419.5 h41 v41 h-41 Z" fill="#ece7dd"/><path d="M319.5 179.5 h81 v41 h-81 ZM359.5 219.5 h41 v41 h-41 ZM359.5 259.5 h41 v41 h-41 ZM359.5 299.5 h41 v41 h-41 ZM359.5 339.5 h41 v41 h-41 ZM359.5 379.5 h41 v41 h-41 ZM359.5 419.5 h81 v41 h-81 Z" fill="#ece7dd"/><path d="M519.5 179.5 h41 v41 h-41 ZM479.5 259.5 h81 v41 h-81 ZM519.5 299.5 h41 v41 h-41 ZM519.5 339.5 h41 v41 h-41 ZM519.5 379.5 h41 v41 h-41 ZM519.5 419.5 h81 v41 h-81 Z" fill="#ece7dd"/><path d="M639.5 259.5 h201 v41 h-201 ZM639.5 299.5 h41 v41 h-41 ZM719.5 299.5 h41 v41 h-41 ZM799.5 299.5 h41 v41 h-41 ZM639.5 339.5 h41 v41 h-41 ZM719.5 339.5 h41 v41 h-41 ZM799.5 339.5 h41 v41 h-41 ZM639.5 379.5 h41 v41 h-41 ZM719.5 379.5 h41 v41 h-41 ZM799.5 379.5 h41 v41 h-41 ZM639.5 419.5 h41 v41 h-41 ZM719.5 419.5 h41 v41 h-41 ZM799.5 419.5 h41 v41 h-41 Z" fill="#ece7dd"/><path d="M879.5 259.5 h201 v41 h-201 ZM879.5 299.5 h41 v41 h-41 ZM959.5 299.5 h41 v41 h-41 ZM1039.5 299.5 h41 v41 h-41 ZM879.5 339.5 h41 v41 h-41 ZM959.5 339.5 h41 v41 h-41 ZM1039.5 339.5 h41 v41 h-41 ZM879.5 379.5 h41 v41 h-41 ZM959.5 379.5 h41 v41 h-41 ZM1039.5 379.5 h41 v41 h-41 ZM879.5 419.5 h41 v41 h-41 ZM959.5 419.5 h41 v41 h-41 ZM1039.5 419.5 h41 v41 h-41 Z" fill="#ece7dd"/><path d="M1119.5 259.5 h161 v41 h-161 ZM1119.5 299.5 h41 v41 h-41 ZM1239.5 299.5 h41 v41 h-41 ZM1119.5 339.5 h161 v41 h-161 ZM1119.5 379.5 h41 v41 h-41 ZM1119.5 419.5 h161 v41 h-161 Z" fill="#ece7dd"/><path d="M1359.5 259.5 h41 v41 h-41 ZM1439.5 259.5 h81 v41 h-81 ZM1359.5 299.5 h81 v41 h-81 ZM1359.5 339.5 h41 v41 h-41 ZM1359.5 379.5 h41 v41 h-41 ZM1359.5 419.5 h41 v41 h-41 Z" fill="#ece7dd"/><path d="M1599 259 h82 v202 h-82 Z" fill="#cfae5c"/></svg>
</g><g><svg xmlns="http://www.w3.org/2000/svg" role="img" aria-label="Flimmer Cursor" viewBox="0 0 1000 1000" x="592.667" y="660" width="64" height="64" preserveAspectRatio="xMidYMid meet"><title>Flimmer Cursor</title><rect width="1000" height="1000" fill="#11100e"/><path d="M149.5 149.5 h301 v101 h-301 ZM149.5 249.5 h101 v101 h-101 ZM149.5 349.5 h301 v101 h-301 ZM149.5 449.5 h101 v101 h-101 ZM149.5 549.5 h101 v101 h-101 ZM149.5 649.5 h101 v101 h-101 ZM149.5 749.5 h101 v101 h-101 Z" fill="#ece7dd"/><path d="M649 349 h202 v502 h-202 Z" fill="#cfae5c"/></svg>
</g><text x="624.667" y="744" font-family="system-ui,-apple-system,'Segoe UI',Helvetica,Arial,sans-serif" font-size="12" fill="#8a8a8a" text-anchor="middle">64px</text><g><svg xmlns="http://www.w3.org/2000/svg" role="img" aria-label="Flimmer Cursor" viewBox="0 0 1000 1000" x="682.667" y="692" width="32" height="32" preserveAspectRatio="xMidYMid meet"><title>Flimmer Cursor</title><rect width="1000" height="1000" fill="#11100e"/><path d="M149.5 149.5 h301 v101 h-301 ZM149.5 249.5 h101 v101 h-101 ZM149.5 349.5 h301 v101 h-301 ZM149.5 449.5 h101 v101 h-101 ZM149.5 549.5 h101 v101 h-101 ZM149.5 649.5 h101 v101 h-101 ZM149.5 749.5 h101 v101 h-101 Z" fill="#ece7dd"/><path d="M649 349 h202 v502 h-202 Z" fill="#cfae5c"/></svg>
</g><text x="698.667" y="744" font-family="system-ui,-apple-system,'Segoe UI',Helvetica,Arial,sans-serif" font-size="12" fill="#8a8a8a" text-anchor="middle">32px</text><g><svg xmlns="http://www.w3.org/2000/svg" role="img" aria-label="Flimmer Cursor" viewBox="0 0 1000 1000" x="740.667" y="708" width="16" height="16" preserveAspectRatio="xMidYMid meet"><title>Flimmer Cursor</title><rect width="1000" height="1000" fill="#11100e"/><path d="M149.5 149.5 h301 v101 h-301 ZM149.5 249.5 h101 v101 h-101 ZM149.5 349.5 h301 v101 h-301 ZM149.5 449.5 h101 v101 h-101 ZM149.5 549.5 h101 v101 h-101 ZM149.5 649.5 h101 v101 h-101 ZM149.5 749.5 h101 v101 h-101 Z" fill="#ece7dd"/><path d="M649 349 h202 v502 h-202 Z" fill="#cfae5c"/></svg>
</g><text x="748.667" y="744" font-family="system-ui,-apple-system,'Segoe UI',Helvetica,Arial,sans-serif" font-size="12" fill="#8a8a8a" text-anchor="middle">16px</text><text x="592.6666666666667" y="780" font-family="system-ui,-apple-system,'Segoe UI',Helvetica,Arial,sans-serif" font-size="26" font-weight="700" fill="#161616">B · Cursor</text><text x="592.6666666666667" y="814" font-family="system-ui,-apple-system,'Segoe UI',Helvetica,Arial,sans-serif" font-size="19" fill="#555">Ein f und der blinkende Cursor als Flacker</text><rect x="1065.33" y="150" width="474.667" height="774" rx="18" fill="#fff" stroke="#e4e4e0" stroke-width="1"/><g><svg xmlns="http://www.w3.org/2000/svg" role="img" aria-label="Flimmer Block-Play" viewBox="0 0 1000 1000" x="1095.33" y="190" width="414.667" height="300" preserveAspectRatio="xMidYMid meet"><title>Flimmer Block-Play</title><rect width="1000" height="1000" fill="#11100e"/><path d="M180 180 h640 v640 h-640 Z M340.0 308 L468.0 308 L468.0 372 L596.0 372 L596.0 436 L724.0 436 L724.0 564 L596.0 564 L596.0 628 L468.0 628 L468.0 692 L340.0 692 Z" fill="#ece7dd" fill-rule="evenodd"/><path d="M340.0 500 L724.0 500 L724.0 564 L596.0 564 L596.0 628 L468.0 628 L468.0 692 L340.0 692 Z" fill="#78716a"/></svg>
</g><g><svg xmlns="http://www.w3.org/2000/svg" role="img" aria-label="Flimmer Block-Play" viewBox="0 0 2200 640" x="1095.33" y="514" width="414.667" height="120" preserveAspectRatio="xMidYMid meet"><title>Flimmer Block-Play</title><rect width="2200" height="640" fill="#11100e"/><g transform="translate(120 120) scale(0.625) translate(-180 -180)"><path d="M180 180 h640 v640 h-640 Z M340.0 308 L468.0 308 L468.0 372 L596.0 372 L596.0 436 L724.0 436 L724.0 564 L596.0 564 L596.0 628 L468.0 628 L468.0 692 L340.0 692 Z" fill="#ece7dd" fill-rule="evenodd"/><path d="M340.0 500 L724.0 500 L724.0 564 L596.0 564 L596.0 628 L468.0 628 L468.0 692 L340.0 692 Z" fill="#78716a"/></g><path d="M639.5 179.5 h121 v41 h-121 ZM639.5 219.5 h41 v41 h-41 ZM639.5 259.5 h121 v41 h-121 ZM639.5 299.5 h41 v41 h-41 ZM639.5 339.5 h41 v41 h-41 ZM639.5 379.5 h41 v41 h-41 ZM639.5 419.5 h41 v41 h-41 Z" fill="#78716a"/><path d="M839.5 179.5 h81 v41 h-81 ZM879.5 219.5 h41 v41 h-41 ZM879.5 259.5 h41 v41 h-41 ZM879.5 299.5 h41 v41 h-41 ZM879.5 339.5 h41 v41 h-41 ZM879.5 379.5 h41 v41 h-41 ZM879.5 419.5 h81 v41 h-81 Z" fill="#78716a"/><path d="M1039.5 179.5 h41 v41 h-41 ZM999.5 259.5 h81 v41 h-81 ZM1039.5 299.5 h41 v41 h-41 ZM1039.5 339.5 h41 v41 h-41 ZM1039.5 379.5 h41 v41 h-41 ZM1039.5 419.5 h81 v41 h-81 Z" fill="#78716a"/><path d="M1159.5 259.5 h201 v41 h-201 ZM1159.5 299.5 h41 v41 h-41 ZM1239.5 299.5 h41 v41 h-41 ZM1319.5 299.5 h41 v41 h-41 ZM1159.5 339.5 h41 v41 h-41 ZM1239.5 339.5 h41 v41 h-41 ZM1319.5 339.5 h41 v41 h-41 ZM1159.5 379.5 h41 v41 h-41 ZM1239.5 379.5 h41 v41 h-41 ZM1319.5 379.5 h41 v41 h-41 ZM1159.5 419.5 h41 v41 h-41 ZM1239.5 419.5 h41 v41 h-41 ZM1319.5 419.5 h41 v41 h-41 Z" fill="#78716a"/><path d="M1399.5 259.5 h201 v41 h-201 ZM1399.5 299.5 h41 v41 h-41 ZM1479.5 299.5 h41 v41 h-41 ZM1559.5 299.5 h41 v41 h-41 ZM1399.5 339.5 h41 v41 h-41 ZM1479.5 339.5 h41 v41 h-41 ZM1559.5 339.5 h41 v41 h-41 ZM1399.5 379.5 h41 v41 h-41 ZM1479.5 379.5 h41 v41 h-41 ZM1559.5 379.5 h41 v41 h-41 ZM1399.5 419.5 h41 v41 h-41 ZM1479.5 419.5 h41 v41 h-41 ZM1559.5 419.5 h41 v41 h-41 Z" fill="#ece7dd"/><path d="M1639.5 259.5 h161 v41 h-161 ZM1639.5 299.5 h41 v41 h-41 ZM1759.5 299.5 h41 v41 h-41 ZM1639.5 339.5 h161 v41 h-161 ZM1639.5 379.5 h41 v41 h-41 ZM1639.5 419.5 h161 v41 h-161 Z" fill="#ece7dd"/><path d="M1879.5 259.5 h41 v41 h-41 ZM1959.5 259.5 h81 v41 h-81 ZM1879.5 299.5 h81 v41 h-81 ZM1879.5 339.5 h41 v41 h-41 ZM1879.5 379.5 h41 v41 h-41 ZM1879.5 419.5 h41 v41 h-41 Z" fill="#ece7dd"/></svg>
</g><g><svg xmlns="http://www.w3.org/2000/svg" role="img" aria-label="Flimmer Block-Play" viewBox="0 0 1000 1000" x="1095.33" y="660" width="64" height="64" preserveAspectRatio="xMidYMid meet"><title>Flimmer Block-Play</title><rect width="1000" height="1000" fill="#11100e"/><path d="M180 180 h640 v640 h-640 Z M340.0 308 L468.0 308 L468.0 372 L596.0 372 L596.0 436 L724.0 436 L724.0 564 L596.0 564 L596.0 628 L468.0 628 L468.0 692 L340.0 692 Z" fill="#ece7dd" fill-rule="evenodd"/><path d="M340.0 500 L724.0 500 L724.0 564 L596.0 564 L596.0 628 L468.0 628 L468.0 692 L340.0 692 Z" fill="#78716a"/></svg>
</g><text x="1127.33" y="744" font-family="system-ui,-apple-system,'Segoe UI',Helvetica,Arial,sans-serif" font-size="12" fill="#8a8a8a" text-anchor="middle">64px</text><g><svg xmlns="http://www.w3.org/2000/svg" role="img" aria-label="Flimmer Block-Play" viewBox="0 0 1000 1000" x="1185.33" y="692" width="32" height="32" preserveAspectRatio="xMidYMid meet"><title>Flimmer Block-Play</title><rect width="1000" height="1000" fill="#11100e"/><path d="M180 180 h640 v640 h-640 Z M340.0 308 L468.0 308 L468.0 372 L596.0 372 L596.0 436 L724.0 436 L724.0 564 L596.0 564 L596.0 628 L468.0 628 L468.0 692 L340.0 692 Z" fill="#ece7dd" fill-rule="evenodd"/><path d="M340.0 500 L724.0 500 L724.0 564 L596.0 564 L596.0 628 L468.0 628 L468.0 692 L340.0 692 Z" fill="#78716a"/></svg>
</g><text x="1201.33" y="744" font-family="system-ui,-apple-system,'Segoe UI',Helvetica,Arial,sans-serif" font-size="12" fill="#8a8a8a" text-anchor="middle">32px</text><g><svg xmlns="http://www.w3.org/2000/svg" role="img" aria-label="Flimmer Block-Play" viewBox="0 0 1000 1000" x="1243.33" y="708" width="16" height="16" preserveAspectRatio="xMidYMid meet"><title>Flimmer Block-Play</title><rect width="1000" height="1000" fill="#11100e"/><path d="M180 180 h640 v640 h-640 Z M340.0 308 L468.0 308 L468.0 372 L596.0 372 L596.0 436 L724.0 436 L724.0 564 L596.0 564 L596.0 628 L468.0 628 L468.0 692 L340.0 692 Z" fill="#ece7dd" fill-rule="evenodd"/><path d="M340.0 500 L724.0 500 L724.0 564 L596.0 564 L596.0 628 L468.0 628 L468.0 692 L340.0 692 Z" fill="#78716a"/></svg>
</g><text x="1251.33" y="744" font-family="system-ui,-apple-system,'Segoe UI',Helvetica,Arial,sans-serif" font-size="12" fill="#8a8a8a" text-anchor="middle">16px</text><text x="1095.3333333333335" y="780" font-family="system-ui,-apple-system,'Segoe UI',Helvetica,Arial,sans-serif" font-size="26" font-weight="700" fill="#161616">C · Block-Play</text><text x="1095.3333333333335" y="814" font-family="system-ui,-apple-system,'Segoe UI',Helvetica,Arial,sans-serif" font-size="19" fill="#555">Derselbe Block mit Pixel-Play</text></svg>
